Coordinates
version=1
nRows=18
nColumns=26
inDegrees=yes

Units are S.I. units (second, meters, Newtons, ...)
Angles are in degrees.

endheader
time	pelvis_tilt	pelvis_list	pelvis_rotation	pelvis_tx	pelvis_ty	pelvis_tz	hip_flexion_r	hip_adduction_r	hip_rotation_r	knee_angle_r	knee_angle_r_beta	ankle_angle_r	subtalar_angle_r	mtp_angle_r	hip_flexion_l	hip_adduction_l	hip_rotation_l	knee_angle_l	knee_angle_l_beta	ankle_angle_l	subtalar_angle_l	mtp_angle_l	lumbar_extension	lumbar_bending	lumbar_rotation
      0.82500000	      7.27694814	     -4.18935336	      1.45213032	      0.95303519	      1.00742773	      0.20342186	     -1.42070373	      7.85590803	     -2.64091380	     13.08865063	     13.08865063	      4.75533644	      0.00000000	      0.00000000	     13.66229623	    -11.68634630	     -5.16589083	     67.43359594	     67.43359594	      9.51619675	      0.00000000	      0.00000000	    -19.02964842	      5.52686377	      4.25915474
      0.83333333	      7.34494389	     -3.93698792	      1.34592144	      0.96129542	      1.00851928	      0.20402917	     -2.35891548	      7.64243812	     -2.38973005	     12.53041772	     12.53041772	      4.85705974	      0.00000000	      0.00000000	     14.44219200	    -11.38211625	     -5.49822722	     66.48032039	     66.48032039	      9.74893699	      0.00000000	      0.00000000	    -19.15304122	      5.20833325	      4.31276148
      0.84166667	      7.36509359	     -3.75089289	      1.18460355	      0.96945831	      1.00945756	      0.20475319	     -3.22418758	      7.50278735	     -2.11271320	     11.96101160	     11.96101160	      4.93175969	      0.00000000	      0.00000000	     15.28978975	    -11.13428761	     -5.84092258	     65.41324427	     65.41324427	      9.91664373	      0.00000000	      0.00000000	    -19.24466533	      4.95170379	      4.42266206
      0.85000000	      7.35281690	     -3.57079059	      1.06250903	      0.97742786	      1.01025224	      0.20541542	     -4.00984181	      7.36304715	     -1.96273981	     11.42660029	     11.42660029	      5.04181413	      0.00000000	      0.00000000	     16.21998800	    -10.87843703	     -6.15994385	     64.31151659	     64.31151659	      9.91664026	      0.00000000	      0.00000000	    -19.32253539	      4.71450769	      4.49895411
      0.85833333	      7.33386091	     -3.36340565	      0.89862667	      0.98536208	      1.01097637	      0.20608899	     -4.75548350	      7.18220755	     -1.80920831	     10.99594998	     10.99594998	      5.14848463	      0.00000000	      0.00000000	     16.98322263	    -10.60955190	     -6.56111654	     62.89171146	     62.89171146	      9.89347732	      0.00000000	      0.00000000	    -19.40823471	      4.44037468	      4.60355899
      0.86666667	      7.27883035	     -3.18855370	      0.70937916	      0.99328710	      1.01150381	      0.20665501	     -5.51816380	      7.03036255	     -1.47579094	     10.43876595	     10.43876595	      5.24547335	      0.00000000	      0.00000000	     17.67163012	    -10.36697090	     -7.01355402	     61.25602517	     61.25602517	      9.80446874	      0.00000000	      0.00000000	    -19.45326620	      4.20150882	      4.67354322
      0.87500000	      7.23377072	     -3.06124318	      0.54033867	      1.00120803	      1.01195621	      0.20710217	     -6.29380093	      6.92022786	     -1.18829837	      9.86876579	      9.86876579	      5.34737720	      0.00000000	      0.00000000	     18.28107036	    -10.16251100	     -7.38997874	     59.48402389	     59.48402389	      9.64967181	      0.00000000	      0.00000000	    -19.51364127	      4.03296909	      4.72709137
      0.88333333	      7.15182551	     -2.96109614	      0.35521638	      1.00906275	      1.01211430	      0.20768163	     -7.02567707	      6.84454743	     -0.84381457	      9.30278291	      9.30278291	      5.50032681	      0.00000000	      0.00000000	     18.88712340	    -10.01698877	     -7.83367024	     57.58863419	     57.58863419	      9.35994373	      0.00000000	      0.00000000	    -19.54080400	      3.87157170	      4.82077628
      0.89166667	      7.19240223	     -2.73181250	      0.11010122	      1.01701787	      1.01253606	      0.20802343	     -7.87074149	      6.57341307	     -0.58059727	      8.77850473	      8.77850473	      5.61324214	      0.00000000	      0.00000000	     19.18926101	     -9.68986740	     -8.36575005	     55.36863807	     55.36863807	      8.97227476	      0.00000000	      0.00000000	    -19.70125463	      3.58478686	      4.92357333
      0.90000000	      7.17629462	     -2.67608215	     -0.08384407	      1.02485019	      1.01262528	      0.20844218	     -8.62850606	      6.50858616	     -0.32750106	      8.28208024	      8.28208024	      5.69337702	      0.00000000	      0.00000000	     19.59423954	     -9.59357744	     -8.94761459	     53.16968382	     53.16968382	      8.44773436	      0.00000000	      0.00000000	    -19.81341506	      3.49033199	      5.05638992
      0.90833333	      7.01293893	     -2.72167875	     -0.18655989	      1.03241257	      1.01232905	      0.20862717	     -9.12672014	      6.54356931	     -0.22669645	      7.91581976	      7.91581976	      5.79026599	      0.00000000	      0.00000000	     20.13783368	     -9.51336973	     -9.35005219	     50.79384317	     50.79384317	      7.93643966	      0.00000000	      0.00000000	    -19.79025800	      3.54015985	      5.06390228
      0.91666667	      6.86738079	     -2.70352184	     -0.34416374	      1.04002570	      1.01189158	      0.20882896	     -9.66644502	      6.50657706	     -0.06284002	      7.55108945	      7.55108945	      5.95928725	      0.00000000	      0.00000000	     20.54406447	     -9.34009470	     -9.79202345	     48.22657770	     48.22657770	      7.28654602	      0.00000000	      0.00000000	    -19.78568942	      3.51305268	      5.13586247
      0.92500000	      6.78647000	     -2.70140294	     -0.58744731	      1.04779668	      1.01144985	      0.20914150	    -10.31051570	      6.46567734	      0.19877466	      7.15074347	      7.15074347	      6.06782995	      0.00000000	      0.00000000	     20.79873612	     -9.22640872	    -10.31521474	     45.59662819	     45.59662819	      6.69896958	      0.00000000	      0.00000000	    -19.84780567	      3.47679802	      5.32611940
      0.93333333	      6.60726131	     -2.75020124	     -0.84851962	      1.05537105	      1.01068088	      0.20942005	    -10.77872033	      6.47755237	      0.36652603	      6.86218722	      6.86218722	      6.21752176	      0.00000000	      0.00000000	     21.05571487	     -9.15499150	    -10.90666751	     42.74758264	     42.74758264	      6.06340284	      0.00000000	      0.00000000	    -19.83347477	      3.50296482	      5.51139086
      0.94166667	      6.41425580	     -2.81408560	     -1.08306862	      1.06286920	      1.00982265	      0.20961903	    -11.18873930	      6.48821256	      0.48513187	      6.64166903	      6.64166903	      6.42046728	      0.00000000	      0.00000000	     21.30620183	     -9.08163600	    -11.48639095	     39.85679062	     39.85679062	      5.29036573	      0.00000000	      0.00000000	    -19.81538499	      3.55906947	      5.66385960
      0.95000000	      6.20202410	     -2.90057743	     -1.33629430	      1.07039916	      1.00888675	      0.20973775	    -11.58626618	      6.51255017	      0.66472126	      6.41034921	      6.41034921	      6.71489020	      0.00000000	      0.00000000	     21.47547929	     -9.01676680	    -12.10483732	     36.79086857	     36.79086857	      4.33004197	      0.00000000	      0.00000000	    -19.78230024	      3.65005031	      5.83490343
      0.95833333	      5.98865995	     -3.01663918	     -1.62577308	      1.07786198	      1.00780309	      0.20993415	    -11.96003147	      6.56204397	      0.91055868	      6.22984109	      6.22984109	      6.99300246	      0.00000000	      0.00000000	     21.57600165	     -8.96507864	    -12.74560709	     33.61648125	     33.61648125	      3.26757290	      0.00000000	      0.00000000	    -19.76858604	      3.76447917	      6.04823303
      0.96666667	      5.80523550	     -3.12066971	     -1.90746502	      1.08541325	      1.00672783	      0.20995313	    -12.35667133	      6.58004746	      1.11837778	      6.06467815	      6.06467815	      7.20458629	      0.00000000	      0.00000000	     21.53786941	     -8.82714621	    -13.37597835	     30.24801077	     30.24801077	      2.06301699	      0.00000000	      0.00000000	    -19.79342652	      3.87874028	      6.21238439
